inDegrees=no
num_controls=7
num_derivatives=13
num_iterations=100
num_multipliers=7
num_parameters=0
num_slacks=7
num_states=26
objective=5.431693
objective_accelerations=0.529371
objective_balance=0.109814
objective_effort=0.385544
objective_height=4.365927
objective_ligament=0.041038
solver_duration=1153.337102
status=Solve_Succeeded
success=true
DataType=double
version=3
OpenSimVersion=4.4-2022-07-23-0e9fedc
endheader
time	/jointset/ground_pelvis/pelvis_tilt/value	/jointset/ground_pelvis/pelvis_tx/value	/jointset/ground_pelvis/pelvis_ty/value	/jointset/hip_l/hip_flexion_l/value	/jointset/hip_l/hip_adduction_l/value	/jointset/hip_l/hip_rotation_l/value	/jointset/back/lumbar_extension/value	/jointset/patellofemoral_l/patellar_flexion_l/value	/jointset/knee_l/knee_flexion_l/value	/jointset/knee_l/knee_adduction_l/value	/jointset/knee_l/knee_rotation_l/value	/jointset/ankle_l/ankle_angle_l/value	/jointset/subtalar_l/subtalar_angle_l/value	/jointset/ground_pelvis/pelvis_tilt/speed	/jointset/ground_pelvis/pelvis_tx/speed	/jointset/ground_pelvis/pelvis_ty/speed	/jointset/hip_l/hip_flexion_l/speed	/jointset/hip_l/hip_adduction_l/speed	/jointset/hip_l/hip_rotation_l/speed	/jointset/back/lumbar_extension/speed	/jointset/patellofemoral_l/patellar_flexion_l/speed	/jointset/knee_l/knee_flexion_l/speed	/jointset/knee_l/knee_adduction_l/speed	/jointset/knee_l/knee_rotation_l/speed	/jointset/ankle_l/ankle_angle_l/speed	/jointset/subtalar_l/subtalar_angle_l/speed	/forceset/tau_hip_flexion_l	/forceset/tau_hip_adduction_l	/forceset/tau_hip_rotation_l	/forceset/tau_knee_flexion_l	/forceset/tau_ankle_angle_l	/forceset/tau_subtalar_angle_l	/forceset/tau_lumbar_extension	lambda_cid13_p0	lambda_cid13_p1	lambda_cid13_p2	lambda_cid13_p3	lambda_cid13_p4	lambda_cid13_p5	lambda_cid14_p0	/jointset/ground_pelvis/pelvis_tilt/accel	/jointset/ground_pelvis/pelvis_tx/accel	/jointset/ground_pelvis/pelvis_ty/accel	/jointset/hip_l/hip_flexion_l/accel	/jointset/hip_l/hip_adduction_l/accel	/jointset/hip_l/hip_rotation_l/accel	/jointset/back/lumbar_extension/accel	/jointset/patellofemoral_l/patellar_flexion_l/accel	/jointset/knee_l/knee_flexion_l/accel	/jointset/knee_l/knee_adduction_l/accel	/jointset/knee_l/knee_rotation_l/accel	/jointset/ankle_l/ankle_angle_l/accel	/jointset/subtalar_l/subtalar_angle_l/accel	gamma_cid13_p0	gamma_cid13_p1	gamma_cid13_p2	gamma_cid13_p3	gamma_cid13_p4	gamma_cid13_p5	gamma_cid14_p0
1	-0.5725030933678892	-0.07647192099376197	0.6404551706968432	1.747611385801454	-0.2949780985422571	0.1288260589640461	-0.4363296567111691	1.169840253376933	1.169840253377705	-0.1745194230595361	0.1745291179576437	0.1940766110751221	-0.005733274897483132	-0.0108361830439775	0.0003788450131055359	-0.003432458031402464	0.0173974463895155	0.0006504256115666024	0.00326064195080521	0.0003209008057661399	0.008725662344483232	0.008725662344480562	-5.086606541881443e-06	-7.181560639823812e-05	0.002762359867515475	0.00128085699034617	-0.3941707451553068	0.02629972043355281	-0.01909590186279238	-0.2522735264154025	0.04493523509531915	0.03336725512626237	0.328422508297009	-30.28525109744243	-9.55586510585584	1.540471401547207	12.65253195536983	-716.645053693758	-44.59068700402452	-1.462247015569621	1.68194725184012	0.174912580756324	1.505628209642006	-5.647422708715141	-0.3346113509962021	-1.667814943833321	-0.01091867155009509	-4.632751886419651	-4.632751886419493	-0.04124352441987591	0.01240434538369065	-0.9540203493462205	-0.5518444073286056	3.497969306926398e-09	2.881997762008446e-09	-2.971772748826665e-09	-6.853370307775687e-09	5.118874357377489e-09	7.761852259877907e-10	3.322658433884633e-10
1.01	-0.5725280666621396	-0.07645948962840636	0.6404958650455631	1.747504395081247	-0.2949875134368945	0.1287745291602369	-0.436326623171691	1.169696608437227	1.169696608437757	-0.1745194756451065	0.1745284146775756	0.1940567625517771	-0.005747042341770567	0.005830015174819069	0.002101922444925814	0.01155474694220819	-0.03873889948696672	-0.002531783251126343	-0.01355587170041763	0.0002546283607743743	-0.03741317781793983	-0.03741317781793933	-5.32007430927863e-06	-6.287861506747642e-05	-0.006734918191146595	-0.004033319837178331	-0.3933856790407608	0.02622680368962761	-0.01910196021881301	-0.2522365368851545	0.04514545538609486	0.03335326885796091	0.3277642180254547	-30.17298934591527	-9.572026939717531	1.545994956419354	12.61961914743702	-715.882864758644	-44.61742415267579	-1.465909238813715	1.657229214948711	0.1701784331755566	1.492779435675034	-5.588237406286809	-0.3097856984469645	-1.686964176538598	-0.009158344481261129	-4.598228099385775	-4.598228099385985	0.02060157065228627	-0.003973030007910534	-0.9480088481032073	-0.5210523389108356	8.436259665067943e-11	-7.339306256291307e-09	2.526640699773495e-08	-5.26202597159742e-09	-3.476063685914371e-10	1.212902735260907e-08	-5.498495498987839e-09
1.02	-0.5723867233525441	-0.07642999286697805	0.640685934002909	1.746837741526394	-0.2950287024290724	0.1285551552997878	-0.4363251877195249	1.169092819492244	1.16909281949259	-0.174519527599601	0.1745279784861744	0.1939418557850539	-0.005813921158022759	0.0224271377155224	0.003791924227645443	0.0264424636941156	-0.09453512053039963	-0.005704393895482752	-0.03030816938250147	1.283375440799334e-06	-0.08330313870962609	-0.08330313870962323	-4.960397773349747e-06	-1.839786435861248e-05	-0.01624928880887195	-0.009341417402557624	-0.3926006129265927	0.02615388694570907	-0.01910801857489957	-0.2521995473548239	0.04535567567696588	0.03333928258968843	0.3271059277534858	-30.06922247282111	-9.586160402674938	1.550576992490359	12.62087754280704	-715.2302718389606	-44.61323345195488	-1.48133345463505	1.668132116221527	0.168297450936168	1.485730565301346	-5.579397742105263	-0.3326917073289183	-1.654971750005553	-0.04833317962078462	-4.582976032272282	-4.582976032272287	-0.04112489555921739	0.01951309725936056	-0.9574388611589281	-0.5506285548996033	-6.143438117117655e-09	-1.776426207469755e-08	4.958436757241353e-08	3.139270297961536e-09	-9.784082475180148e-09	2.034868007701544e-08	-1.02372313170858e-08
1.03	-0.5720795831470278	-0.07638364336752754	0.6410245374252923	1.745614148078826	-0.2951015164496966	0.1281685233973957	-0.4363266116579443	1.168030904654441	1.168030904654314	-0.1745195842808863	0.1745280492711977	0.1937317503929948	-0.005933765803655876	0.03900641535464378	0.005484243972679955	0.04127715458268413	-0.1501946946829717	-0.008851066673732651	-0.04701531616620402	-0.0002562095809524554	-0.1290853807481583	-0.129085380748155	-4.818645220132036e-06	2.74566755026607e-05	-0.02577148242997333	-0.01461750693017953	-0.3926952535051754	0.02628823948177847	-0.01912887996033384	-0.2519153272343734	0.04527881197833846	0.03344958478798352	0.3272747733100538	-30.0912174013962	-9.638452406617326	1.568324691593816	12.56395347881898	-715.2725914933177	-44.65281905787775	-1.508705085831759	1.653651594060093	0.1706418558619932	1.482174510949105	-5.56090737138688	-0.3045623056691793	-1.678165249844372	-0.009978141291252237	-4.576678052668014	-4.576678052668258	0.02081123074435031	-0.003659709264439792	-0.9495635701168138	-0.5146026625137297	-1.239995509622777e-08	-2.819129597269672e-08	7.386232591064432e-08	1.161005587296319e-08	-1.926106873871398e-08	2.853636148099102e-08	-1.496482401758907e-08
1.04	-0.5716064849638282	-0.07632018214671282	0.6415114549886234	1.743833624865863	-0.2952055786466184	0.127614904205706	-0.4363297146831639	1.166511001443651	1.166511001443006	-0.1745195940406576	0.1745284223332521	0.1934264322732204	-0.006106072046729453	0.05561873324586007	0.007214268500486862	0.05610529188396815	-0.2059210736177074	-0.01195402915583236	-0.06370562724157496	-0.0003345340430617522	-0.1749008133076512	-0.1749008133076476	4.423910600914586e-06	4.205755080558507e-05	-0.03529183435230973	-0.01983373689061016	-0.3927898940836329	0.0264225920178485	-0.0191497413454826	-0.2516311071139366	0.0452019482796995	0.03355988698627609	0.3274436188667628	-30.12171648695774	-9.688736621367617	1.585159521925228	12.54107736781789	-715.4245353209857	-44.66188743892342	-1.54834444562634	1.674740166640669	0.1758384074905362	1.484419847844414	-5.592758698537953	-0.3239496480988255	-1.651604608339166	-0.01249948076577771	-4.589614136464422	-4.589614136464469	-0.03930473490561715	0.01326236434756695	-0.9570705214061119	-0.5386566414613223	-1.616442446659286e-08	-3.906282536571989e-08	9.95576541532404e-08	1.387162238210572e-08	-2.482099171799545e-08	3.796933568419336e-08	-2.036553355267778e-08
1.05	-0.5709673345081159	-0.07623919926634332	0.6421465138912935	1.741495908619451	-0.2953404261902521	0.1268945707320228	-0.4363321717906909	1.164532966284324	1.164532966284287	-0.1745195209635744	0.1745288099949444	0.1930259431077709	-0.006330200890081239	0.07219275888384676	0.008991893803904933	0.07089466443316735	-0.2615924000868937	-0.01500488790162384	-0.08035168159836631	-7.286606045155669e-05	-0.2206926487940261	-0.2206926487940266	1.073571771018855e-05	3.3628720057863e-05	-0.04480303960560836	-0.02497708938788903	-0.3927624876730322	0.02659965116895178	-0.01918132354170802	-0.2511120563870128	0.04514648415748659	0.03374447339132788	0.3276033025661616	-30.12352134669501	-9.783420818131003	1.617199258204207	12.42265968311337	-715.3052658983032	-44.72541108716714	-1.600796144506072	1.645942393920683	0.1801657346559077	1.474416219230078	-5.549855532607888	-0.2940800675250331	-1.66972088311097	0.05810313787535159	-4.571927578009582	-4.571927578010191	0.02067022262031718	-0.008200603762525585	-0.9477015542517908	-0.4999400719006873	-1.985101734918469e-08	-4.994824524296255e-08	1.252972752053479e-07	1.593915079544019e-08	-3.025850646964405e-08	4.744122528737153e-08	-2.578727798884728e-08
1.06	-0.5701630020697139	-0.07614015190436249	0.6429291105716086	1.738602371926095	-0.2955054675372807	0.1260080537080192	-0.4363294915775402	1.162097420905479	1.162097420906008	-0.17451937055158	0.1745290523489521	0.1925304306843968	-0.006605316362013811	0.08865512978357985	0.0108271648227509	0.08561284741330462	-0.3170851630160268	-0.01799278983564621	-0.0969423373056299	0.0006929299262195764	-0.2664028572118257	-0.2664028572118301	1.989088886625302e-05	1.29960102454319e-05	-0.054296485937313	-0.03003106260674989	-0.3927350812621751	0.02677671032007596	-0.01921290573800589	-0.2505930056601103	0.04509102003523421	0.03392905979639644	0.327762986265841	-30.13382533625533	-9.876148798621569	1.648392254829856	12.33733270269653	-715.2958011720834	-44.75924605937799	-1.66668565775846	1.652409218990126	0.1873675505759713	1.470181934031996	-5.557045990527272	-0.3113582857449164	-1.640524878433525	0.0883261200472162	-4.573288722749366	-4.573288722749373	-0.03873606209619484	0.01082158853444384	-0.9535187370875392	-0.5207807857776644	-2.389733955201986e-08	-6.162076789063001e-08	1.476329002869395e-07	1.849209187164984e-08	-3.558069849316164e-08	5.530849376793772e-08	-3.090015205079184e-08
